# xmcd
#
# Track frame offsets:
#       150
#       11653
#       25519
#       35668
#       48537
#       59521
#       73422
#       86465
#       97086
#       109712
#       123313
#       134440
#       146158
#       157741
#       168470
#       179875
#       192424
#       202538
#       213551
#       226102
#       236247
#       245111
#       256677
#       267208
#       279455
#       291904
#       301673
#       312016
#       322820
#       333798
#
# Disc length: 4570 seconds
#
# Revision: 4
# Processed by: cddbd v1.5.2PL0 Copyright (c) Steve Scherf et al.
# Submitted via: FreeDbEdit v0.1
#
DISCID=b311d81e
DTITLE=Willie Nelson - The Early Years [CD1]
DYEAR=1994
DGENRE=Country
TTITLE0=Night Life
TTITLE1=Rainy Day Blues
TTITLE2=Touch Me
TTITLE3=Wake Me When It's Over
TTITLE4=Hello Walls
TTITLE5=Funny How the Time Slips Away
TTITLE6=Crazy
TTITLE7=The Part Where I Cry
TTITLE8=Mr. Record Man
TTITLE9=Three Days
TTITLE10=One Step Beyond
TTITLE11=Undo the Right
TTITLE12=Darkness on the Face of the Earth
TTITLE13=Where My House Lives
TTITLE14=How Long Is Forever
TTITLE15=Country Willie
TTITLE16=Go Away
TTITLE17=The Waiting Time
TTITLE18=You Wouldn't Even Cross the Street
TTITLE19=There's Gonna Be Love in My House
TTITLE20=Take My Word
TTITLE21=There Goes a Man
TTITLE22=Columbus Stockade Blues
TTITLE23=Chain of Love
TTITLE24=Willingly
TTITLE25=Columbus Stockade Blues
TTITLE26=You Dream About Me
TTITLE27=Is This My Destiny
TTITLE28=Together
TTITLE29=Columbus Stockade Blues
EXTD=
EXTT0=
EXTT1=
EXTT2=
EXTT3=
EXTT4=
EXTT5=
EXTT6=
EXTT7=
EXTT8=
EXTT9=
EXTT10=
EXTT11=
EXTT12=
EXTT13=
EXTT14=
EXTT15=
EXTT16=
EXTT17=
EXTT18=
EXTT19=
EXTT20=
EXTT21=
EXTT22=
EXTT23=
EXTT24=
EXTT25=
EXTT26=
EXTT27=
EXTT28=
EXTT29=
PLAYORDER=
